# xmcd CD database file
#
# Track frame offsets:
#	150
#	35458
#	64821
#	107173
#	137031
#	180742
#	211732
#
# Disc length: 3258 seconds
#
# Revision: 0
# Processed by: cddbd v1.5.2PL0 Copyright (c) Steve Scherf et al.
# Submitted via: CDex 1.70beta2
#
DISCID=600cb807
DTITLE=Brian Lynch And Cuban Jazz Orchestra - Bolero Nights
DYEAR=2009
DGENRE=Jazz
TTITLE0=Afinque
TTITLE1=La Sitiera
TTITLE2=Celia
TTITLE3=Fire Waltz
TTITLE4=Delilah
TTITLE5=I'm A Fool To What You
TTITLE6=You've Changed
EXTD=YEAR: 2009
EXTT0=
EXTT1=
EXTT2=
EXTT3=
EXTT4=
EXTT5=
EXTT6=
PLAYORDER=
